<svg width="400" height="106" version="1.1" xmlns="http://www.w3.org/2000/svg" desc="Created with imagetracer.js version 1.2.6" ><path fill="rgb(0,0,0)" stroke="rgb(0,0,0)" stroke-width="1" opacity="0" d="M 0 0 L 399.5 0 L 400 0.5 L 400 106 L 0.5 106 L 0 105.5 L 0 0 Z M 43 11 Q 33 13 27 18 Q 14 27 12 46 L 11 42 Q 6 48 4 58 L 4 71 L 10 86 Q 17 95 29 100 L 37 102 L 59 102 L 61 91 L 41 91 Q 31 89 25 84 Q 14 76 10 61 L 11 47 L 13 62 L 19 73 Q 26 82 39 86 L 43 87 L 63 87 L 65 75 L 47 75 L 36 71 Q 27 65 24 55 Q 22 41 28 35 Q 33 27 42 24 L 47 23 L 78 23 L 81 13 L 81 11 L 43 11 Z M 44 27 Q 35 30 31 37 L 32 38 L 75 38 L 77 30 L 77 27 L 44 27 Z M 104 36 L 95 40 Q 89 44 87 53 L 87 60 L 90 69 Q 94 75 103 77 Q 109 79 111 76 L 113 76 L 113 64 L 111 65 L 103 64 L 99 60 L 100 52 Q 103 46 112 48 L 114 37 Q 111 35 104 36 Z M 198 36 L 190 39 Q 183 43 181 53 L 181 61 L 184 69 Q 188 75 197 77 Q 203 79 205 76 L 207 76 L 207 64 L 205 65 L 197 64 Q 191 62 193 53 L 199 48 Q 203 47 205 49 L 206 49 L 206 37 Q 204 35 198 36 Z M 118 37 L 118 76 L 119 76 L 129 76 L 130 64 L 136 76 L 147 76 L 140 61 L 145 52 L 143 43 Q 140 38 135 37 L 118 37 Z M 148 37 L 148 67 L 150 72 Q 153 76 160 77 Q 168 78 173 75 L 178 69 L 178 38 L 178 37 L 169 37 L 167 39 L 167 65 L 166 66 Q 160 67 159 64 L 159 37 L 148 37 Z M 212 37 L 212 76 L 213 76 L 223 76 L 223 38 L 223 37 L 212 37 Z M 238 37 L 225 75 L 226 76 L 237 76 L 238 72 L 251 72 L 252 76 L 263 76 L 251 40 L 251 37 L 238 37 Z M 265 37 L 265 76 L 266 76 L 276 76 L 277 59 L 286 75 L 287 76 L 297 76 L 297 38 L 297 37 L 286 37 L 286 54 L 276 39 L 275 37 L 265 37 Z M 302 37 L 302 76 L 324 76 L 326 68 L 326 65 L 313 65 L 313 62 L 321 62 L 322 61 L 324 52 L 313 51 L 314 48 L 325 48 L 327 40 L 327 37 L 302 37 Z M 331 37 L 331 76 L 352 76 L 355 67 L 355 65 L 342 65 L 342 37 L 331 37 Z M 358 37 L 358 76 L 380 76 L 382 67 L 382 65 L 369 65 L 369 37 L 358 37 Z M 385 37 L 385 76 L 386 76 L 395 76 L 396 75 L 396 39 L 395 37 L 385 37 Z " /><path fill="rgb(0,0,0)" stroke="rgb(0,0,0)" stroke-width="1" opacity="0" d="M 129 47 Q 132.8 46.3 134 49.5 L 133 54 L 129 55 L 129 47 Z " /><path fill="rgb(0,0,0)" stroke="rgb(0,0,0)" stroke-width="1" opacity="0" d="M 244.5 54 L 247 60.5 L 242 61 L 244.5 54 Z " /><path fill="rgb(217,8,21)" stroke="rgb(217,8,21)" stroke-width="1" opacity="0.7764705882352941" d="M 46.5 11 L 80 11.5 L 46.5 12 L 46.5 11 Z " /><path fill="rgb(217,8,21)" stroke="rgb(217,8,21)" stroke-width="1" opacity="0.7764705882352941" d="M 77.5 21 L 76.5 23 L 46 22.5 L 76.5 22 L 77.5 21 Z " /><path fill="rgb(217,8,21)" stroke="rgb(217,8,21)" stroke-width="1" opacity="0.7764705882352941" d="M 20.5 25 L 19.5 27 L 20.5 25 Z " /><path fill="rgb(217,8,21)" stroke="rgb(217,8,21)" stroke-width="1" opacity="0.7764705882352941" d="M 32.5 28 L 29.5 32 L 32.5 28 Z " /><path fill="rgb(217,8,21)" stroke="rgb(217,8,21)" stroke-width="1" opacity="0.7764705882352941" d="M 38.5 30 L 37.5 32 L 38.5 30 Z " /><path fill="rgb(217,8,21)" stroke="rgb(217,8,21)" stroke-width="1" opacity="0.7764705882352941" d="M 32.5 36 L 33.5 37 L 74 37.5 L 32 38 L 32.5 36 Z " /><path fill="rgb(217,8,21)" stroke="rgb(217,8,21)" stroke-width="1" opacity="0.7764705882352941" d="M 205.5 37 L 206 47.5 L 205 47.5 L 205.5 37 Z " /><path fill="rgb(217,8,21)" stroke="rgb(217,8,21)" stroke-width="1" opacity="0.7764705882352941" d="M 177.5 38 L 178 65.5 L 177 65.5 L 177.5 38 Z " /><path fill="rgb(217,8,21)" stroke="rgb(217,8,21)" stroke-width="1" opacity="0.7764705882352941" d="M 212.5 38 L 213 74.5 L 212 74.5 L 212.5 38 Z " /><path fill="rgb(217,8,21)" stroke="rgb(217,8,21)" stroke-width="1" opacity="0.7764705882352941" d="M 331.5 38 L 332 74.5 L 331 74.5 L 331.5 38 Z " /><path fill="rgb(217,8,21)" stroke="rgb(217,8,21)" stroke-width="1" opacity="0.7764705882352941" d="M 190.5 39 L 189.5 41 L 190.5 39 Z " /><path fill="rgb(217,8,21)" stroke="rgb(217,8,21)" stroke-width="1" opacity="0.7764705882352941" d="M 12.5 42 L 13 44.5 L 12 44.5 L 12.5 42 Z " /><path fill="rgb(217,8,21)" stroke="rgb(217,8,21)" stroke-width="1" opacity="0.7764705882352941" d="M 92.5 43 L 91.5 45 L 92.5 43 Z " /><path fill="rgb(217,8,21)" stroke="rgb(217,8,21)" stroke-width="1" opacity="0.7764705882352941" d="M 8.5 47 Q 10.8 46.3 10 48.5 L 8.5 47 Z " /><path fill="rgb(217,8,21)" stroke="rgb(217,8,21)" stroke-width="1" opacity="0.7764705882352941" d="M 312 47 L 324 47.5 L 313 48 L 312.5 52 L 312 47 Z " /><path fill="rgb(217,8,21)" stroke="rgb(217,8,21)" stroke-width="1" opacity="0.7764705882352941" d="M 134.5 49 L 135 51.5 L 134 51.5 L 134.5 49 Z " /><path fill="rgb(217,8,21)" stroke="rgb(217,8,21)" stroke-width="1" opacity="0.7764705882352941" d="M 244.5 51 L 243.5 53 L 244.5 51 Z " /><path fill="rgb(217,8,21)" stroke="rgb(217,8,21)" stroke-width="1" opacity="0.7764705882352941" d="M 12.5 53 L 13 55.5 L 12 55.5 L 12.5 53 Z " /><path fill="rgb(217,8,21)" stroke="rgb(217,8,21)" stroke-width="1" opacity="0.7764705882352941" d="M 133.5 53 L 132.5 55 L 133.5 53 Z " /><path fill="rgb(217,8,21)" stroke="rgb(217,8,21)" stroke-width="1" opacity="0.7764705882352941" d="M 128.5 55 L 131 55.5 L 128.5 56 L 128.5 55 Z " /><path fill="rgb(217,8,21)" stroke="rgb(217,8,21)" stroke-width="1" opacity="0.7764705882352941" d="M 142.5 55 L 139.5 59 L 142.5 55 Z " /><path fill="rgb(217,8,21)" stroke="rgb(217,8,21)" stroke-width="1" opacity="0.7764705882352941" d="M 285.5 55 L 286.5 57 L 285.5 55 Z " /><path fill="rgb(217,8,21)" stroke="rgb(217,8,21)" stroke-width="1" opacity="0.7764705882352941" d="M 275.5 57 L 276 74.5 L 275 74.5 L 275.5 57 Z " /><path fill="rgb(217,8,21)" stroke="rgb(217,8,21)" stroke-width="1" opacity="0.7764705882352941" d="M 128.5 60 L 129.5 62 L 128.5 60 Z " /><path fill="rgb(217,8,21)" stroke="rgb(217,8,21)" stroke-width="1" opacity="0.7764705882352941" d="M 4.5 61 L 5 66.5 L 4 66.5 L 4.5 61 Z " /><path fill="rgb(217,8,21)" stroke="rgb(217,8,21)" stroke-width="1" opacity="0.7764705882352941" d="M 312 61 L 314 61.5 L 313 65 L 325 65.5 L 312 66 L 312 61 Z " /><path fill="rgb(217,8,21)" stroke="rgb(217,8,21)" stroke-width="1" opacity="0.7764705882352941" d="M 341.5 65 L 354 65.5 L 341.5 66 L 341.5 65 Z " /><path fill="rgb(217,8,21)" stroke="rgb(217,8,21)" stroke-width="1" opacity="0.7764705882352941" d="M 368.5 65 L 381 65.5 L 368.5 66 L 368.5 65 Z " /><path fill="rgb(217,8,21)" stroke="rgb(217,8,21)" stroke-width="1" opacity="0.7764705882352941" d="M 29.5 66 L 31.5 69 L 29.5 66 Z " /><path fill="rgb(217,8,21)" stroke="rgb(217,8,21)" stroke-width="1" opacity="0.7764705882352941" d="M 184.5 67 L 185.5 69 L 184.5 67 Z " /><path fill="rgb(217,8,21)" stroke="rgb(217,8,21)" stroke-width="1" opacity="0.7764705882352941" d="M 19.5 71 L 20.5 73 L 19.5 71 Z " /><path fill="rgb(217,8,21)" stroke="rgb(217,8,21)" stroke-width="1" opacity="0.7764705882352941" d="M 46.5 75 L 64.5 75 L 65 76.5 L 63.5 76 L 46.5 76 L 46.5 75 Z " /><path fill="rgb(217,8,21)" stroke="rgb(217,8,21)" stroke-width="1" opacity="0.7764705882352941" d="M 46.5 86 L 62 86.5 L 46.5 87 L 46.5 86 Z " /><path fill="rgb(217,8,21)" stroke="rgb(217,8,21)" stroke-width="1" opacity="0.7764705882352941" d="M 14.5 89 L 16.5 92 L 14.5 89 Z " /><path fill="rgb(217,8,21)" stroke="rgb(217,8,21)" stroke-width="1" opacity="0.7764705882352941" d="M 40.5 91 L 43 91.5 L 40.5 92 L 40.5 91 Z " /><path fill="rgb(226,5,19)" stroke="rgb(226,5,19)" stroke-width="1" opacity="0.996078431372549" d="M 42.5 12 L 80 12.5 L 76.5 22 L 46.5 22 Q 35.2 24.2 29 31.5 L 23 43.5 L 23 54.5 Q 25.1 63.9 31.5 69 Q 37.2 74.3 46.5 76 L 64 76 L 62 86 L 42.5 86 L 38.5 85 Q 27.6 81.4 21 73.5 L 13 58.5 L 12 45.5 Q 14.7 28.7 25.5 20 Q 32.1 14.1 42.5 12 Z " /><path fill="rgb(226,5,19)" stroke="rgb(226,5,19)" stroke-width="1" opacity="0.996078431372549" d="M 43.5 28 L 75.5 28 L 76 29.5 L 74 37 L 33.5 37 L 33 35.5 L 43.5 28 Z " /><path fill="rgb(226,5,19)" stroke="rgb(226,5,19)" stroke-width="1" opacity="0.996078431372549" d="M 103.5 37 L 111.5 37 L 113 38.5 L 111 47 Q 101.8 45.4 99 51.5 L 98 59.5 L 102.5 65 L 110.5 66 L 112 65.5 L 112 74.5 L 110.5 75 Q 108.7 77.7 102.5 76 Q 95.6 74.5 92 69.5 L 88 60.5 L 88 52.5 L 94.5 41 L 103.5 37 Z " /><path fill="rgb(226,5,19)" stroke="rgb(226,5,19)" stroke-width="1" opacity="0.996078431372549" d="M 197.5 37 L 205 37 L 205 47.5 L 203.5 47 Q 196.6 46.3 194 49 L 192 52.5 L 192 59.5 L 194 64 Q 196.9 66.9 204.5 66 L 206 65.5 L 206 74.5 L 204.5 75 Q 202.7 77.7 196.5 76 Q 189.5 74.5 186 69.5 Q 180.8 64.2 182 52.5 Q 183.4 44.9 188.5 41 L 197.5 37 Z " /><path fill="rgb(226,5,19)" stroke="rgb(226,5,19)" stroke-width="1" opacity="0.996078431372549" d="M 119 38 L 134.5 38 L 142 42.5 Q 144.6 45.4 144 51.5 L 139 58.5 L 139 60.5 L 145 75 L 135.5 75 L 135 73.5 L 128.5 60 L 128 75 L 119.5 75 L 119 74.5 L 119 38 Z M 128 46 L 128 56 L 133 55 L 135 52 L 134 47 L 128 46 Z " /><path fill="rgb(226,5,19)" stroke="rgb(226,5,19)" stroke-width="1" opacity="0.996078431372549" d="M 149 38 L 158 38 L 158 63.5 L 159 66 L 165.5 67 L 168 64.5 L 168 38 L 176.5 38 L 177 38.5 L 177 68.5 L 172.5 74 Q 167.8 77.3 158.5 76 L 151 71.5 L 149 67.5 L 149 38 Z " /><path fill="rgb(226,5,19)" stroke="rgb(226,5,19)" stroke-width="1" opacity="0.996078431372549" d="M 213 38 L 221.5 38 L 222 38.5 L 222 75 L 213.5 75 L 213 74.5 L 213 38 Z " /><path fill="rgb(226,5,19)" stroke="rgb(226,5,19)" stroke-width="1" opacity="0.996078431372549" d="M 239 38 L 249.5 38 L 250 39.5 L 262 75 L 252.5 75 L 252 73.5 L 251 71 L 237.5 71 L 237 73.5 L 235.5 75 L 226.5 75 L 227 73.5 L 239 38 Z M 245 51 L 241 59 L 241 62 L 248 62 L 245 51 Z " /><path fill="rgb(226,5,19)" stroke="rgb(226,5,19)" stroke-width="1" opacity="0.996078431372549" d="M 266 38 L 274.5 38 L 275 39.5 L 286.5 57 L 287 38 L 295.5 38 L 296 38.5 L 296 75 L 287.5 75 L 285 72.5 L 275.5 57 L 275 75 L 266.5 75 L 266 74.5 L 266 38 Z " /><path fill="rgb(226,5,19)" stroke="rgb(226,5,19)" stroke-width="1" opacity="0.996078431372549" d="M 303 38 L 325.5 38 L 326 39.5 L 324 47 L 312 47 L 312 52 L 323 52.5 L 321 61 L 312 61 L 312 66 L 324.5 66 L 325 67.5 L 323 75 L 303 75 L 303 38 Z " /><path fill="rgb(226,5,19)" stroke="rgb(226,5,19)" stroke-width="1" opacity="0.996078431372549" d="M 332 38 L 340.5 38 L 341 38.5 L 341 66 L 353.5 66 L 353 67.5 L 352 75 L 332 75 L 332 38 Z " /><path fill="rgb(226,5,19)" stroke="rgb(226,5,19)" stroke-width="1" opacity="0.996078431372549" d="M 359 38 L 367.5 38 L 368 38.5 L 368 66 L 380.5 66 L 381 67.5 L 379 75 L 359 75 L 359 38 Z " /><path fill="rgb(226,5,19)" stroke="rgb(226,5,19)" stroke-width="1" opacity="0.996078431372549" d="M 385 38 L 394.5 38 L 395 38.5 L 395 75 L 385.5 75 L 385 74.5 L 385 38 Z " /><path fill="rgb(226,5,19)" stroke="rgb(226,5,19)" stroke-width="1" opacity="0.996078431372549" d="M 8.5 48 Q 7.7 59.8 11 67.5 Q 15.5 78.5 24.5 85 Q 30.9 90.1 40.5 92 L 60 92 L 59 99.5 L 57.5 101 L 36.5 101 L 31.5 100 Q 19 96 12 86.5 L 5 71.5 L 5 56.5 L 8.5 48 Z " /><path fill="rgb(203,11,21)" stroke="rgb(203,11,21)" stroke-width="1" opacity="0.29411764705882354" d="M 42.5 11 L 46 11.5 L 42.5 12 L 42.5 11 Z " /><path fill="rgb(203,11,21)" stroke="rgb(203,11,21)" stroke-width="1" opacity="0.29411764705882354" d="M 31.5 15 L 30.5 17 L 19.5 26 L 26.5 18 L 31.5 15 Z " /><path fill="rgb(203,11,21)" stroke="rgb(203,11,21)" stroke-width="1" opacity="0.29411764705882354" d="M 43.5 23 L 46 23.5 L 43.5 24 L 43.5 23 Z " /><path fill="rgb(203,11,21)" stroke="rgb(203,11,21)" stroke-width="1" opacity="0.29411764705882354" d="M 18.5 27 L 17.5 29 L 18.5 27 Z " /><path fill="rgb(203,11,21)" stroke="rgb(203,11,21)" stroke-width="1" opacity="0.29411764705882354" d="M 34.5 27 L 28.5 34 L 34.5 27 Z " /><path fill="rgb(203,11,21)" stroke="rgb(203,11,21)" stroke-width="1" opacity="0.29411764705882354" d="M 43.5 27 L 76.5 27 L 77 29.5 L 76 29.5 L 75.5 28 L 43.5 28 L 43.5 27 Z " /><path fill="rgb(203,11,21)" stroke="rgb(203,11,21)" stroke-width="1" opacity="0.29411764705882354" d="M 37.5 30 L 32 36.5 L 31.5 38 L 31 36.5 L 37.5 30 Z " /><path fill="rgb(203,11,21)" stroke="rgb(203,11,21)" stroke-width="1" opacity="0.29411764705882354" d="M 75.5 31 L 76 33.5 L 75 33.5 L 75.5 31 Z " /><path fill="rgb(203,11,21)" stroke="rgb(203,11,21)" stroke-width="1" opacity="0.29411764705882354" d="M 27.5 35 L 26.5 37 L 27.5 35 Z " /><path fill="rgb(203,11,21)" stroke="rgb(203,11,21)" stroke-width="1" opacity="0.29411764705882354" d="M 103.5 36 L 111 36.5 L 103.5 37 L 103.5 36 Z " /><path fill="rgb(203,11,21)" stroke="rgb(203,11,21)" stroke-width="1" opacity="0.29411764705882354" d="M 197.5 36 L 204 36.5 L 197.5 37 L 197.5 36 Z " /><path fill="rgb(203,11,21)" stroke="rgb(203,11,21)" stroke-width="1" opacity="0.29411764705882354" d="M 118 37 L 135 37.5 L 119 38 L 119 74.5 L 119.5 75 L 128 75 L 128.5 61 L 130 63.5 L 129 64.5 L 129 76 L 118.5 76 L 118 75.5 L 118 37 Z " /><path fill="rgb(203,11,21)" stroke="rgb(203,11,21)" stroke-width="1" opacity="0.29411764705882354" d="M 148 37 L 159 37 L 159 61.5 L 158 61.5 L 158 38 L 149 38 L 148.5 67 L 148 37 Z " /><path fill="rgb(203,11,21)" stroke="rgb(203,11,21)" stroke-width="1" opacity="0.29411764705882354" d="M 168.5 37 L 178 37.5 L 168 38 L 167.5 64 L 167 38.5 L 168.5 37 Z " /><path fill="rgb(203,11,21)" stroke="rgb(203,11,21)" stroke-width="1" opacity="0.29411764705882354" d="M 212.5 37 L 222.5 37 L 223 37.5 L 223 76 L 212 75.5 L 222 75 L 222 38.5 L 221.5 38 L 212.5 38 L 212.5 37 Z " /><path fill="rgb(203,11,21)" stroke="rgb(203,11,21)" stroke-width="1" opacity="0.29411764705882354" d="M 238 37 L 250.5 37 L 251 38.5 L 249.5 38 L 239.5 38 L 238.5 39 L 238 37 Z " /><path fill="rgb(203,11,21)" stroke="rgb(203,11,21)" stroke-width="1" opacity="0.29411764705882354" d="M 265 37 L 274.5 37 L 276 38.5 L 274.5 38 L 266.5 38 L 266 38.5 L 266 75 L 276 75.5 L 265 76 L 265 37 Z " /><path fill="rgb(203,11,21)" stroke="rgb(203,11,21)" stroke-width="1" opacity="0.29411764705882354" d="M 286 37 L 296.5 37 L 297 37.5 L 297 76 L 286 75.5 L 296 75 L 296 38.5 L 295.5 38 L 287 38 L 286.5 56 L 284.5 53 L 286 53.5 L 286 37 Z " /><path fill="rgb(203,11,21)" stroke="rgb(203,11,21)" stroke-width="1" opacity="0.29411764705882354" d="M 302 37 L 326.5 37 L 327 39.5 L 326 39.5 L 325.5 38 L 303 38 L 303 75 L 322.5 75 L 324 74.5 L 323.5 76 L 302 76 L 302 37 Z " /><path fill="rgb(203,11,21)" stroke="rgb(203,11,21)" stroke-width="1" opacity="0.29411764705882354" d="M 331.5 37 L 342 37 L 342 64.5 L 341 64.5 L 341 38 L 331.5 38 L 331.5 37 Z " /><path fill="rgb(203,11,21)" stroke="rgb(203,11,21)" stroke-width="1" opacity="0.29411764705882354" d="M 358 37 L 369 37 L 369 64.5 L 368 64.5 L 368 38.5 L 367.5 38 L 359 38 L 359 75 L 379 75 L 379.5 73 L 380 76 L 358 76 L 358 37 Z " /><path fill="rgb(203,11,21)" stroke="rgb(203,11,21)" stroke-width="1" opacity="0.29411764705882354" d="M 385.5 37 L 394.5 37 L 396 38.5 L 396 74.5 L 394.5 76 L 385 75.5 L 395 75 L 395 38.5 L 394.5 38 L 385.5 38 L 385.5 37 Z " /><path fill="rgb(203,11,21)" stroke="rgb(203,11,21)" stroke-width="1" opacity="0.29411764705882354" d="M 97.5 38 L 96.5 40 L 97.5 38 Z " /><path fill="rgb(203,11,21)" stroke="rgb(203,11,21)" stroke-width="1" opacity="0.29411764705882354" d="M 139.5 39 L 142.5 43 L 139.5 39 Z " /><path fill="rgb(203,11,21)" stroke="rgb(203,11,21)" stroke-width="1" opacity="0.29411764705882354" d="M 189.5 39 L 185.5 44 L 189.5 39 Z " /><path fill="rgb(203,11,21)" stroke="rgb(203,11,21)" stroke-width="1" opacity="0.29411764705882354" d="M 94.5 40 L 91.5 44 L 94.5 40 Z " /><path fill="rgb(203,11,21)" stroke="rgb(203,11,21)" stroke-width="1" opacity="0.29411764705882354" d="M 276.5 40 L 277.5 42 L 276.5 40 Z " /><path fill="rgb(203,11,21)" stroke="rgb(203,11,21)" stroke-width="1" opacity="0.29411764705882354" d="M 10.5 42 L 12 51.5 L 11 51.5 Q 11.8 46.8 9.5 45 L 7.5 49 L 7 47.5 L 10.5 42 Z " /><path fill="rgb(203,11,21)" stroke="rgb(203,11,21)" stroke-width="1" opacity="0.29411764705882354" d="M 23.5 45 L 24 52.5 L 23 52.5 L 23.5 45 Z " /><path fill="rgb(203,11,21)" stroke="rgb(203,11,21)" stroke-width="1" opacity="0.29411764705882354" d="M 90.5 45 L 90 46.5 L 89.5 48 L 89 46.5 L 90.5 45 Z " /><path fill="rgb(203,11,21)" stroke="rgb(203,11,21)" stroke-width="1" opacity="0.29411764705882354" d="M 111.5 45 L 112 47.5 L 111 47.5 L 111.5 45 Z " /><path fill="rgb(203,11,21)" stroke="rgb(203,11,21)" stroke-width="1" opacity="0.29411764705882354" d="M 184.5 45 L 183.5 47 L 184.5 45 Z " /><path fill="rgb(203,11,21)" stroke="rgb(203,11,21)" stroke-width="1" opacity="0.29411764705882354" d="M 279.5 45 L 280.5 47 L 279.5 45 Z " /><path fill="rgb(203,11,21)" stroke="rgb(203,11,21)" stroke-width="1" opacity="0.29411764705882354" d="M 128 46 L 131 46.5 L 129 47 L 128.5 55 L 128 46 Z " /><path fill="rgb(203,11,21)" stroke="rgb(203,11,21)" stroke-width="1" opacity="0.29411764705882354" d="M 105.5 47 L 110 47.5 L 105.5 48 L 105.5 47 Z " /><path fill="rgb(203,11,21)" stroke="rgb(203,11,21)" stroke-width="1" opacity="0.29411764705882354" d="M 132.5 47 L 133.5 49 L 132.5 47 Z " /><path fill="rgb(203,11,21)" stroke="rgb(203,11,21)" stroke-width="1" opacity="0.29411764705882354" d="M 199.5 47 L 203 47.5 L 199.5 48 L 199.5 47 Z " /><path fill="rgb(203,11,21)" stroke="rgb(203,11,21)" stroke-width="1" opacity="0.29411764705882354" d="M 144.5 48 L 145 51.5 L 144 51.5 L 144.5 48 Z " /><path fill="rgb(203,11,21)" stroke="rgb(203,11,21)" stroke-width="1" opacity="0.29411764705882354" d="M 196.5 48 L 198 48.5 L 193.5 52 L 196.5 48 Z " /><path fill="rgb(203,11,21)" stroke="rgb(203,11,21)" stroke-width="1" opacity="0.29411764705882354" d="M 281.5 48 L 282.5 50 L 281.5 48 Z " /><path fill="rgb(203,11,21)" stroke="rgb(203,11,21)" stroke-width="1" opacity="0.29411764705882354" d="M 9.5 49 L 10 58.5 L 9 58.5 L 9.5 49 Z " /><path fill="rgb(203,11,21)" stroke="rgb(203,11,21)" stroke-width="1" opacity="0.29411764705882354" d="M 101.5 49 L 100 51.5 L 99.5 53 L 99 51.5 L 101.5 49 Z " /><path fill="rgb(203,11,21)" stroke="rgb(203,11,21)" stroke-width="1" opacity="0.29411764705882354" d="M 313.5 51 L 324 51.5 L 313.5 52 L 313.5 51 Z " /><path fill="rgb(203,11,21)" stroke="rgb(203,11,21)" stroke-width="1" opacity="0.29411764705882354" d="M 87.5 52 L 88 59.5 L 87 59.5 L 87.5 52 Z " /><path fill="rgb(203,11,21)" stroke="rgb(203,11,21)" stroke-width="1" opacity="0.29411764705882354" d="M 181.5 52 L 182 60.5 L 181 60.5 L 181.5 52 Z " /><path fill="rgb(203,11,21)" stroke="rgb(203,11,21)" stroke-width="1" opacity="0.29411764705882354" d="M 244.5 52 L 245 53.5 L 243 54.5 L 244.5 52 Z " /><path fill="rgb(203,11,21)" stroke="rgb(203,11,21)" stroke-width="1" opacity="0.29411764705882354" d="M 192.5 53 L 193 58.5 L 192 58.5 L 192.5 53 Z " /><path fill="rgb(203,11,21)" stroke="rgb(203,11,21)" stroke-width="1" opacity="0.29411764705882354" d="M 98.5 54 L 99 58.5 L 98 58.5 L 98.5 54 Z " /><path fill="rgb(203,11,21)" stroke="rgb(203,11,21)" stroke-width="1" opacity="0.29411764705882354" d="M 322.5 54 L 323 56.5 L 322 56.5 L 322.5 54 Z " /><path fill="rgb(203,11,21)" stroke="rgb(203,11,21)" stroke-width="1" opacity="0.29411764705882354" d="M 142.5 56 L 139.5 60 L 142.5 56 Z " /><path fill="rgb(203,11,21)" stroke="rgb(203,11,21)" stroke-width="1" opacity="0.29411764705882354" d="M 4.5 57 L 5 60.5 L 4 60.5 L 4.5 57 Z " /><path fill="rgb(203,11,21)" stroke="rgb(203,11,21)" stroke-width="1" opacity="0.29411764705882354" d="M 321.5 58 L 322 60.5 Q 320.5 63.5 314.5 62 L 314.5 61 L 321 61 L 321.5 58 Z " /><path fill="rgb(203,11,21)" stroke="rgb(203,11,21)" stroke-width="1" opacity="0.29411764705882354" d="M 241.5 59 L 242 61 L 247 61.5 L 241 62 L 241.5 59 Z " /><path fill="rgb(203,11,21)" stroke="rgb(203,11,21)" stroke-width="1" opacity="0.29411764705882354" d="M 99.5 60 L 102.5 64 L 104 64.5 L 102.5 65 L 99 61.5 L 99.5 60 Z " /><path fill="rgb(203,11,21)" stroke="rgb(203,11,21)" stroke-width="1" opacity="0.29411764705882354" d="M 193.5 60 L 196.5 64 L 198 64.5 L 196.5 65 L 193 61.5 L 193.5 60 Z " /><path fill="rgb(203,11,21)" stroke="rgb(203,11,21)" stroke-width="1" opacity="0.29411764705882354" d="M 10.5 61 L 11 63.5 L 10 63.5 L 10.5 61 Z " /><path fill="rgb(203,11,21)" stroke="rgb(203,11,21)" stroke-width="1" opacity="0.29411764705882354" d="M 26.5 61 L 27.5 63 L 26.5 61 Z " /><path fill="rgb(203,11,21)" stroke="rgb(203,11,21)" stroke-width="1" opacity="0.29411764705882354" d="M 278.5 62 L 279.5 64 L 278.5 62 Z " /><path fill="rgb(203,11,21)" stroke="rgb(203,11,21)" stroke-width="1" opacity="0.29411764705882354" d="M 28.5 64 L 34.5 71 L 28.5 64 Z " /><path fill="rgb(203,11,21)" stroke="rgb(203,11,21)" stroke-width="1" opacity="0.29411764705882354" d="M 111.5 64 L 113 64.5 L 113 75.5 L 112 75.5 L 112 65.5 L 111.5 64 Z " /><path fill="rgb(203,11,21)" stroke="rgb(203,11,21)" stroke-width="1" opacity="0.29411764705882354" d="M 159.5 64 Q 160.8 66.8 165 66.5 L 161.5 67 L 159.5 64 Z " /><path fill="rgb(203,11,21)" stroke="rgb(203,11,21)" stroke-width="1" opacity="0.29411764705882354" d="M 205.5 64 L 207 64.5 L 207 75.5 L 206 75.5 L 206 65.5 L 205.5 64 Z " /><path fill="rgb(203,11,21)" stroke="rgb(203,11,21)" stroke-width="1" opacity="0.29411764705882354" d="M 89.5 65 L 96 73.5 L 90 68.5 L 89.5 65 Z " /><path fill="rgb(203,11,21)" stroke="rgb(203,11,21)" stroke-width="1" opacity="0.29411764705882354" d="M 105.5 65 L 109 65.5 L 105.5 66 L 105.5 65 Z " /><path fill="rgb(203,11,21)" stroke="rgb(203,11,21)" stroke-width="1" opacity="0.29411764705882354" d="M 199.5 65 L 203 65.5 L 199.5 66 L 199.5 65 Z " /><path fill="rgb(203,11,21)" stroke="rgb(203,11,21)" stroke-width="1" opacity="0.29411764705882354" d="M 325.5 65 L 326 67.5 L 325 67.5 L 325.5 65 Z " /><path fill="rgb(203,11,21)" stroke="rgb(203,11,21)" stroke-width="1" opacity="0.29411764705882354" d="M 177.5 66 L 178 68.5 L 177 68.5 L 177.5 66 Z " /><path fill="rgb(203,11,21)" stroke="rgb(203,11,21)" stroke-width="1" opacity="0.29411764705882354" d="M 228.5 66 L 229 67.5 L 227.5 70 L 227 68.5 L 228.5 66 Z " /><path fill="rgb(203,11,21)" stroke="rgb(203,11,21)" stroke-width="1" opacity="0.29411764705882354" d="M 4.5 67 L 5 70.5 L 4 70.5 L 4.5 67 Z " /><path fill="rgb(203,11,21)" stroke="rgb(203,11,21)" stroke-width="1" opacity="0.29411764705882354" d="M 281.5 67 L 282.5 69 L 281.5 67 Z " /><path fill="rgb(203,11,21)" stroke="rgb(203,11,21)" stroke-width="1" opacity="0.29411764705882354" d="M 184.5 68 L 189.5 74 L 184.5 68 Z " /><path fill="rgb(203,11,21)" stroke="rgb(203,11,21)" stroke-width="1" opacity="0.29411764705882354" d="M 353.5 68 L 354 70.5 L 353 70.5 L 353.5 68 Z " /><path fill="rgb(203,11,21)" stroke="rgb(203,11,21)" stroke-width="1" opacity="0.29411764705882354" d="M 17.5 69 L 18.5 71 L 17.5 69 Z " /><path fill="rgb(203,11,21)" stroke="rgb(203,11,21)" stroke-width="1" opacity="0.29411764705882354" d="M 13.5 70 L 15 72.5 L 13 71.5 L 13.5 70 Z " /><path fill="rgb(203,11,21)" stroke="rgb(203,11,21)" stroke-width="1" opacity="0.29411764705882354" d="M 176.5 70 L 175.5 72 L 176.5 70 Z " /><path fill="rgb(203,11,21)" stroke="rgb(203,11,21)" stroke-width="1" opacity="0.29411764705882354" d="M 150.5 71 L 153.5 75 L 150.5 71 Z " /><path fill="rgb(203,11,21)" stroke="rgb(203,11,21)" stroke-width="1" opacity="0.29411764705882354" d="M 238.5 71 L 251 71.5 L 238 72 L 237.5 74 L 237 72.5 L 238.5 71 Z " /><path fill="rgb(203,11,21)" stroke="rgb(203,11,21)" stroke-width="1" opacity="0.29411764705882354" d="M 19.5 72 L 25.5 79 L 19.5 72 Z " /><path fill="rgb(203,11,21)" stroke="rgb(203,11,21)" stroke-width="1" opacity="0.29411764705882354" d="M 284.5 72 L 285.5 74 L 284.5 72 Z " /><path fill="rgb(203,11,21)" stroke="rgb(203,11,21)" stroke-width="1" opacity="0.29411764705882354" d="M 173.5 73 L 172.5 75 L 173.5 73 Z " /><path fill="rgb(203,11,21)" stroke="rgb(203,11,21)" stroke-width="1" opacity="0.29411764705882354" d="M 262.5 73 L 263 76 L 251.5 76 L 251 74.5 L 252.5 75 L 261.5 75 L 262.5 73 Z " /><path fill="rgb(203,11,21)" stroke="rgb(203,11,21)" stroke-width="1" opacity="0.29411764705882354" d="M 352.5 73 L 353 74.5 L 351.5 76 L 331.5 76 L 331.5 75 L 351.5 75 L 352.5 73 Z " /><path fill="rgb(203,11,21)" stroke="rgb(203,11,21)" stroke-width="1" opacity="0.29411764705882354" d="M 15.5 74 L 16.5 76 L 15.5 74 Z " /><path fill="rgb(203,11,21)" stroke="rgb(203,11,21)" stroke-width="1" opacity="0.29411764705882354" d="M 43.5 74 L 46 74.5 L 43.5 75 L 43.5 74 Z " /><path fill="rgb(203,11,21)" stroke="rgb(203,11,21)" stroke-width="1" opacity="0.29411764705882354" d="M 134.5 74 L 135.5 75 L 147 75.5 L 135.5 76 L 134.5 74 Z " /><path fill="rgb(203,11,21)" stroke="rgb(203,11,21)" stroke-width="1" opacity="0.29411764705882354" d="M 225.5 74 L 226.5 75 L 237 75.5 L 225 76 L 225.5 74 Z " /><path fill="rgb(203,11,21)" stroke="rgb(203,11,21)" stroke-width="1" opacity="0.29411764705882354" d="M 102.5 76 L 110 76.5 L 102.5 77 L 102.5 76 Z " /><path fill="rgb(203,11,21)" stroke="rgb(203,11,21)" stroke-width="1" opacity="0.29411764705882354" d="M 159.5 76 L 167 76.5 L 159.5 77 L 159.5 76 Z " /><path fill="rgb(203,11,21)" stroke="rgb(203,11,21)" stroke-width="1" opacity="0.29411764705882354" d="M 196.5 76 L 204 76.5 L 196.5 77 L 196.5 76 Z " /><path fill="rgb(203,11,21)" stroke="rgb(203,11,21)" stroke-width="1" opacity="0.29411764705882354" d="M 17.5 77 L 23.5 84 L 17.5 77 Z " /><path fill="rgb(203,11,21)" stroke="rgb(203,11,21)" stroke-width="1" opacity="0.29411764705882354" d="M 27.5 79 L 32 82.5 L 30.5 82 L 27.5 79 Z " /><path fill="rgb(203,11,21)" stroke="rgb(203,11,21)" stroke-width="1" opacity="0.29411764705882354" d="M 9.5 83 L 14 88.5 L 10 85.5 L 9.5 83 Z " /><path fill="rgb(203,11,21)" stroke="rgb(203,11,21)" stroke-width="1" opacity="0.29411764705882354" d="M 33.5 83 L 37 84.5 L 35.5 85 L 33.5 83 Z " /><path fill="rgb(203,11,21)" stroke="rgb(203,11,21)" stroke-width="1" opacity="0.29411764705882354" d="M 25.5 84 L 26.5 86 L 25.5 84 Z " /><path fill="rgb(203,11,21)" stroke="rgb(203,11,21)" stroke-width="1" opacity="0.29411764705882354" d="M 38.5 85 L 41 85.5 L 38.5 86 L 38.5 85 Z " /><path fill="rgb(203,11,21)" stroke="rgb(203,11,21)" stroke-width="1" opacity="0.29411764705882354" d="M 42.5 86 L 46 86.5 L 42.5 87 L 42.5 86 Z " /><path fill="rgb(203,11,21)" stroke="rgb(203,11,21)" stroke-width="1" opacity="0.29411764705882354" d="M 37.5 90 L 40 90.5 L 37.5 91 L 37.5 90 Z " /><path fill="rgb(203,11,21)" stroke="rgb(203,11,21)" stroke-width="1" opacity="0.29411764705882354" d="M 43.5 91 L 61 91.5 L 43.5 92 L 43.5 91 Z " /><path fill="rgb(203,11,21)" stroke="rgb(203,11,21)" stroke-width="1" opacity="0.29411764705882354" d="M 17.5 92 L 19.5 95 L 17.5 92 Z " /><path fill="rgb(203,11,21)" stroke="rgb(203,11,21)" stroke-width="1" opacity="0.29411764705882354" d="M 21.5 95 L 22.5 97 L 21.5 95 Z " /><path fill="rgb(203,11,21)" stroke="rgb(203,11,21)" stroke-width="1" opacity="0.29411764705882354" d="M 31.5 100 L 34 100.5 L 31.5 101 L 31.5 100 Z " /><path fill="rgb(203,11,21)" stroke="rgb(203,11,21)" stroke-width="1" opacity="0.29411764705882354" d="M 36.5 101 L 59 101.5 L 36.5 102 L 36.5 101 Z " /></svg>